<svg width="122" height="40" viewBox="0 0 122 40" fill="none" xmlns="http://www.w3.org/2000/svg">
<g clip-path="url(#clip0_35_2)">
<rect width="122" height="40" fill="#5EB536"/>
<path fill-rule="evenodd" clip-rule="evenodd" d="M100.429 15.7143C100.429 15.3198 100.748 15 101.143 15H109V22.8571C109 23.2516 108.68 23.5714 108.286 23.5714C107.891 23.5714 107.571 23.2516 107.571 22.8571V17.4387L100.219 24.7909C99.9404 25.0697 99.4882 25.0697 99.2092 24.7909C98.9303 24.5119 98.9303 24.0596 99.2092 23.7806L106.561 16.4286H101.143C100.748 16.4286 100.429 16.1088 100.429 15.7143Z" fill="black"/>
<path d="M14.453 26V14.32H17.717C18.485 14.32 19.1517 14.4693 19.717 14.768C20.2823 15.056 20.7197 15.472 21.029 16.016C21.349 16.5493 21.509 17.1733 21.509 17.888V22.4C21.509 23.136 21.349 23.7707 21.029 24.304C20.7197 24.8373 20.2823 25.2533 19.717 25.552C19.1517 25.8507 18.485 26 17.717 26H14.453ZM16.181 24.448H17.717C18.3463 24.448 18.8477 24.2667 19.221 23.904C19.5943 23.5413 19.781 23.04 19.781 22.4V17.888C19.781 17.2693 19.5943 16.7787 19.221 16.416C18.8477 16.0427 18.3463 15.856 17.717 15.856H16.181V24.448ZM27.5188 26.144C26.4308 26.144 25.5614 25.8293 24.9108 25.2C24.2708 24.5707 23.9508 23.712 23.9508 22.624V20.576C23.9508 19.4773 24.2708 18.6187 24.9108 18C25.5508 17.3707 26.4201 17.056 27.5188 17.056C28.6174 17.056 29.4868 17.3707 30.1268 18C30.7668 18.6187 31.0868 19.4773 31.0868 20.576V22.624C31.0868 23.712 30.7614 24.5707 30.1108 25.2C29.4708 25.8293 28.6068 26.144 27.5188 26.144ZM27.5188 24.624C28.0948 24.624 28.5428 24.464 28.8628 24.144C29.1934 23.8133 29.3588 23.344 29.3588 22.736V20.464C29.3588 19.856 29.1934 19.392 28.8628 19.072C28.5428 18.7413 28.0948 18.576 27.5188 18.576C26.9428 18.576 26.4894 18.7413 26.1588 19.072C25.8388 19.392 25.6788 19.856 25.6788 20.464V22.736C25.6788 23.344 25.8388 23.8133 26.1588 24.144C26.4894 24.464 26.9428 24.624 27.5188 24.624ZM34.0885 26L32.6805 17.2H34.1045L34.9365 22.992C34.9792 23.28 35.0165 23.5947 35.0485 23.936C35.0805 24.2667 35.1018 24.5387 35.1125 24.752C35.1338 24.5387 35.1605 24.2667 35.1925 23.936C35.2245 23.5947 35.2672 23.28 35.3205 22.992L36.3445 17.2H37.8965L38.9205 22.992C38.9632 23.28 39.0005 23.5947 39.0325 23.936C39.0752 24.2667 39.1072 24.5387 39.1285 24.752C39.1498 24.5387 39.1712 24.2667 39.1925 23.936C39.2245 23.5947 39.2618 23.28 39.3045 22.992L40.1685 17.2H41.5445L40.0885 26H38.2645L37.3365 20.256C37.2832 19.9573 37.2352 19.6267 37.1925 19.264C37.1605 18.9013 37.1338 18.6133 37.1125 18.4C37.1018 18.6133 37.0698 18.9013 37.0165 19.264C36.9738 19.6267 36.9312 19.9573 36.8885 20.256L35.9285 26H34.0885ZM43.2503 26V17.2H44.9623V18.88C45.0476 18.304 45.2929 17.856 45.6983 17.536C46.1143 17.2053 46.6529 17.04 47.3143 17.04C48.1889 17.04 48.8876 17.3227 49.4103 17.888C49.9329 18.4427 50.1943 19.1947 50.1943 20.144V26H48.4663V20.4C48.4663 19.792 48.3116 19.328 48.0023 19.008C47.6929 18.6773 47.2716 18.512 46.7383 18.512C46.1943 18.512 45.7623 18.6827 45.4423 19.024C45.1329 19.3653 44.9783 19.84 44.9783 20.448V26H43.2503ZM57.66 26C56.828 26 56.1613 25.76 55.66 25.28C55.1693 24.7893 54.924 24.1387 54.924 23.328V15.888H51.964V14.32H56.652V23.296C56.652 23.648 56.748 23.9253 56.94 24.128C57.132 24.3307 57.3933 24.432 57.724 24.432H60.38V26H57.66ZM65.8938 26.144C64.8058 26.144 63.9364 25.8293 63.2858 25.2C62.6458 24.5707 62.3258 23.712 62.3258 22.624V20.576C62.3258 19.4773 62.6458 18.6187 63.2858 18C63.9258 17.3707 64.7951 17.056 65.8938 17.056C66.9924 17.056 67.8618 17.3707 68.5018 18C69.1418 18.6187 69.4618 19.4773 69.4618 20.576V22.624C69.4618 23.712 69.1364 24.5707 68.4858 25.2C67.8458 25.8293 66.9818 26.144 65.8938 26.144ZM65.8938 24.624C66.4698 24.624 66.9178 24.464 67.2378 24.144C67.5684 23.8133 67.7338 23.344 67.7338 22.736V20.464C67.7338 19.856 67.5684 19.392 67.2378 19.072C66.9178 18.7413 66.4698 18.576 65.8938 18.576C65.3178 18.576 64.8644 18.7413 64.5338 19.072C64.2138 19.392 64.0538 19.856 64.0538 20.464V22.736C64.0538 23.344 64.2138 23.8133 64.5338 24.144C64.8644 24.464 65.3178 24.624 65.8938 24.624ZM74.6075 26.16C73.7115 26.16 72.9968 25.9093 72.4635 25.408C71.9408 24.896 71.6795 24.2293 71.6795 23.408C71.6795 22.576 71.9622 21.9093 72.5275 21.408C73.0928 20.896 73.8448 20.64 74.7835 20.64H77.2155V20C77.2155 18.9867 76.6448 18.48 75.5035 18.48C74.9915 18.48 74.5808 18.576 74.2715 18.768C73.9622 18.96 73.7968 19.2267 73.7755 19.568H72.0795C72.1328 18.832 72.4635 18.2293 73.0715 17.76C73.6795 17.28 74.4955 17.04 75.5195 17.04C76.6075 17.04 77.4502 17.3013 78.0475 17.824C78.6448 18.336 78.9435 19.056 78.9435 19.984V26H77.2475V24.352H77.2315C77.1568 24.9173 76.8902 25.36 76.4315 25.68C75.9728 26 75.3648 26.16 74.6075 26.16ZM75.1035 24.736C75.7542 24.736 76.2662 24.5813 76.6395 24.272C77.0235 23.952 77.2155 23.5253 77.2155 22.992V21.856H74.9115C74.4528 21.856 74.0848 21.9893 73.8075 22.256C73.5408 22.5227 73.4075 22.864 73.4075 23.28C73.4075 23.728 73.5568 24.0853 73.8555 24.352C74.1542 24.608 74.5702 24.736 75.1035 24.736ZM84.4253 26.16C83.5506 26.16 82.8519 25.8613 82.3293 25.264C81.8066 24.6667 81.5453 23.8613 81.5453 22.848V20.368C81.5453 19.344 81.8066 18.5333 82.3293 17.936C82.8519 17.3387 83.5506 17.04 84.4253 17.04C85.0546 17.04 85.5826 17.2 86.0093 17.52C86.4466 17.84 86.7293 18.288 86.8573 18.864L86.8093 16.832V14.32H88.5373V26H86.8253V24.336C86.7079 24.912 86.4359 25.36 86.0093 25.68C85.5933 26 85.0653 26.16 84.4253 26.16ZM85.0333 24.656C85.5879 24.656 86.0199 24.4907 86.3293 24.16C86.6493 23.8187 86.8093 23.3387 86.8093 22.72V20.464C86.8093 19.856 86.6493 19.3867 86.3293 19.056C86.0199 18.7147 85.5879 18.544 85.0333 18.544C84.4786 18.544 84.0466 18.6933 83.7373 18.992C83.4279 19.28 83.2733 19.744 83.2733 20.384V22.8C83.2733 23.4507 83.4279 23.9253 83.7373 24.224C84.0466 24.512 84.4786 24.656 85.0333 24.656Z" fill="black"/>
</g>
<defs>
<clipPath id="clip0_35_2">
<rect width="122" height="40" fill="white"/>
</clipPath>
</defs>
</svg>
